<svg xmlns="http://www.w3.org/2000/svg" viewBox="0 0 1200 130" width="1200" height="130" role="img" aria-labelledby="ft fd">
  <title id="ft">Конец страницы</title>
  <desc id="fd">Подвал профиля: тёмная плита, верхний край которой срезан волной и обведён жёлтым — зеркало заголовка.</desc>

  <defs>
    <linearGradient id="fslab" x1="0" y1="0" x2="0" y2="1">
      <stop offset="0" stop-color="#15151A"/>
      <stop offset="1" stop-color="#0E0E10"/>
    </linearGradient>
    <clipPath id="fslabclip"><path d="M 0.0,26.00 C 50.0,34.38 100.0,42.00 150.0,42.00 C 200.0,42.00 250.0,34.38 300.0,26.00 C 350.0,17.62 400.0,10.00 450.0,10.00 C 500.0,10.00 550.0,17.62 600.0,26.00 C 650.0,34.38 700.0,42.00 750.0,42.00 C 800.0,42.00 850.0,34.38 900.0,26.00 C 950.0,17.62 1000.0,10.00 1050.0,10.00 C 1100.0,10.00 1150.0,17.62 1200.0,26.00 L 1200,118 A 12,12 0 0 1 1188,130 L 12,130 A 12,12 0 0 1 0,118 Z"/></clipPath>
  </defs>

  <path d="M 0.0,26.00 C 50.0,34.38 100.0,42.00 150.0,42.00 C 200.0,42.00 250.0,34.38 300.0,26.00 C 350.0,17.62 400.0,10.00 450.0,10.00 C 500.0,10.00 550.0,17.62 600.0,26.00 C 650.0,34.38 700.0,42.00 750.0,42.00 C 800.0,42.00 850.0,34.38 900.0,26.00 C 950.0,17.62 1000.0,10.00 1050.0,10.00 C 1100.0,10.00 1150.0,17.62 1200.0,26.00 L 1200,118 A 12,12 0 0 1 1188,130 L 12,130 A 12,12 0 0 1 0,118 Z" fill="url(#fslab)"/>

  <g clip-path="url(#fslabclip)">
    <path d="M 0.0,52.38 C 50.0,62.77 100.0,70.46 150.0,69.98 C 200.0,69.49 250.0,60.88 300.0,50.29 C 350.0,39.69 400.0,28.16 450.0,23.93 C 500.0,19.70 550.0,23.18 600.0,31.89 C 650.0,40.61 700.0,53.68 750.0,61.79 C 800.0,69.90 850.0,72.24 900.0,67.13 C 950.0,62.03 1000.0,50.00 1050.0,39.62 C 1100.0,29.23 1150.0,21.54 1200.0,22.02 L 1200,0 L 0,0 Z" fill="#1F1F26"/>
    <path d="M 0.0,82.70 C 50.0,78.42 100.0,62.58 150.0,52.64 C 200.0,42.69 250.0,41.69 300.0,50.74 C 350.0,59.78 400.0,76.09 450.0,81.71 C 500.0,87.32 550.0,80.52 600.0,68.79 C 650.0,57.05 700.0,44.00 750.0,44.00 C 800.0,44.00 850.0,57.05 900.0,68.79 C 950.0,80.52 1000.0,87.32 1050.0,81.71 C 1100.0,76.09 1150.0,59.78 1200.0,50.74 L 1200,0 L 0,0 Z" fill="#E8FF4A" opacity="0.07"/>
  </g>

  <path d="M 0.0,26.00 C 50.0,34.38 100.0,42.00 150.0,42.00 C 200.0,42.00 250.0,34.38 300.0,26.00 C 350.0,17.62 400.0,10.00 450.0,10.00 C 500.0,10.00 550.0,17.62 600.0,26.00 C 650.0,34.38 700.0,42.00 750.0,42.00 C 800.0,42.00 850.0,34.38 900.0,26.00 C 950.0,17.62 1000.0,10.00 1050.0,10.00 C 1100.0,10.00 1150.0,17.62 1200.0,26.00" fill="none" stroke="#E8FF4A" stroke-width="3" stroke-linecap="round"/>
</svg>
